<svg xmlns="http://www.w3.org/2000/svg" viewBox="0 0 1200 800" preserveAspectRatio="xMidYMid slice">
  <defs>
    <linearGradient id="sky" x1="0" y1="0" x2="1" y2="1">
      <stop offset="0" stop-color="#ecf7f8"/>
      <stop offset="1" stop-color="#c8e8ec"/>
    </linearGradient>
    <linearGradient id="screen" x1="0" y1="0" x2="0" y2="1">
      <stop offset="0" stop-color="#5bb8c6"/>
      <stop offset="1" stop-color="#2f8fa0"/>
    </linearGradient>
  </defs>


  <!-- Pellicule de cinéma en diagonale -->
  <g transform="translate(600 400) rotate(-14)" opacity=".22">
    <rect x="-900" y="-90" width="1800" height="180" fill="#1f6f7d"/>
    <g fill="#ecf7f8">
      <rect x="-880" y="-75" width="34" height="26" rx="6"/><rect x="-800" y="-75" width="34" height="26" rx="6"/>
      <rect x="-720" y="-75" width="34" height="26" rx="6"/><rect x="-640" y="-75" width="34" height="26" rx="6"/>
      <rect x="-560" y="-75" width="34" height="26" rx="6"/><rect x="-480" y="-75" width="34" height="26" rx="6"/>
      <rect x="-400" y="-75" width="34" height="26" rx="6"/><rect x="-320" y="-75" width="34" height="26" rx="6"/>
      <rect x="-240" y="-75" width="34" height="26" rx="6"/><rect x="-160" y="-75" width="34" height="26" rx="6"/>
      <rect x="-80" y="-75" width="34" height="26" rx="6"/><rect x="0" y="-75" width="34" height="26" rx="6"/>
      <rect x="80" y="-75" width="34" height="26" rx="6"/><rect x="160" y="-75" width="34" height="26" rx="6"/>
      <rect x="240" y="-75" width="34" height="26" rx="6"/><rect x="320" y="-75" width="34" height="26" rx="6"/>
      <rect x="400" y="-75" width="34" height="26" rx="6"/><rect x="480" y="-75" width="34" height="26" rx="6"/>
      <rect x="560" y="-75" width="34" height="26" rx="6"/><rect x="640" y="-75" width="34" height="26" rx="6"/>
      <rect x="720" y="-75" width="34" height="26" rx="6"/><rect x="800" y="-75" width="34" height="26" rx="6"/>
      <rect x="-880" y="49" width="34" height="26" rx="6"/><rect x="-800" y="49" width="34" height="26" rx="6"/>
      <rect x="-720" y="49" width="34" height="26" rx="6"/><rect x="-640" y="49" width="34" height="26" rx="6"/>
      <rect x="-560" y="49" width="34" height="26" rx="6"/><rect x="-480" y="49" width="34" height="26" rx="6"/>
      <rect x="-400" y="49" width="34" height="26" rx="6"/><rect x="-320" y="49" width="34" height="26" rx="6"/>
      <rect x="-240" y="49" width="34" height="26" rx="6"/><rect x="-160" y="49" width="34" height="26" rx="6"/>
      <rect x="-80" y="49" width="34" height="26" rx="6"/><rect x="0" y="49" width="34" height="26" rx="6"/>
      <rect x="80" y="49" width="34" height="26" rx="6"/><rect x="160" y="49" width="34" height="26" rx="6"/>
      <rect x="240" y="49" width="34" height="26" rx="6"/><rect x="320" y="49" width="34" height="26" rx="6"/>
      <rect x="400" y="49" width="34" height="26" rx="6"/><rect x="480" y="49" width="34" height="26" rx="6"/>
      <rect x="560" y="49" width="34" height="26" rx="6"/><rect x="640" y="49" width="34" height="26" rx="6"/>
      <rect x="720" y="49" width="34" height="26" rx="6"/><rect x="800" y="49" width="34" height="26" rx="6"/>
    </g>
  </g>

  <!-- Écran avec un bouton lecture -->
  <g transform="translate(600 420)">
    <ellipse cx="0" cy="250" rx="300" ry="22" fill="#1f6f7d" opacity=".15"/>
    <rect x="-300" y="-200" width="600" height="400" rx="40" fill="#fff"/>
    <rect x="-270" y="-170" width="540" height="340" rx="22" fill="url(#screen)"/>
    <circle cx="0" cy="0" r="90" fill="#fff" opacity=".95"/>
    <path d="M-28 -50 L56 0 L-28 50 Z" fill="#2f8fa0"/>
  </g>
</svg>
