<svg xmlns="http://www.w3.org/2000/svg" viewBox="0 0 400 400">
  <!-- La famille réunie autour d'un cœur : on confirme -->
  <circle cx="200" cy="200" r="170" fill="#e8e6fd"/>
  <circle cx="200" cy="200" r="120" fill="#ffffff" opacity=".6"/>
  <g>
    <circle cx="125" cy="215" r="34" fill="#fbbf24"/>
    <path d="M70 320c0-38 25-62 55-62s55 24 55 62z" fill="#fbbf24"/>
    <circle cx="275" cy="215" r="34" fill="#f472b6"/>
    <path d="M220 320c0-38 25-62 55-62s55 24 55 62z" fill="#f472b6"/>
    <circle cx="200" cy="195" r="40" fill="#4f46e5"/>
    <path d="M136 320c0-46 29-74 64-74s64 28 64 74z" fill="#4f46e5"/>
  </g>
  <path d="M200 120c-14-14-34-22-34-40a17 17 0 0 1 34-6 17 17 0 0 1 34 6c0 18-20 26-34 40z" fill="#fb7185"/>
  <path d="M90 110l5 12 12 5-12 5-5 12-5-12-12-5 12-5z" fill="#fde68a"/>
  <path d="M320 120l4 9 9 4-9 4-4 9-4-9-9-4 9-4z" fill="#4f46e5" opacity=".6"/>
</svg>
